<svg width="512" height="512" viewBox="0 0 512 512" fill="none" xmlns="http://www.w3.org/2000/svg">
<g clip-path="url(#clip0)">
<rect width="512" height="512" fill="white"/>
<path d="M68.2416 377.694L90.4386 355.013L136.812 401.387L114.373 423.826L68.2416 377.694Z" fill="#F0DB4F"/>
<path d="M74.1599 371.435C77.6422 367.659 83.7303 368.097 86.637 372.332L115.439 414.299C119.105 419.641 115.233 426.897 108.755 426.826L41.9277 426.092C34.9976 426.016 31.4361 417.764 36.1345 412.669L74.1599 371.435Z" fill="#F0DB4F"/>
<path d="M77.0639 344.517C76.2829 343.736 76.2829 342.47 77.0639 341.689L105.568 313.184L180.364 387.981L151.86 416.485C151.079 417.266 149.813 417.266 149.032 416.485L77.0639 344.517Z" fill="#323330"/>
<rect x="86.8691" y="294.485" width="47.5999" height="158.666" rx="2" transform="rotate(-45 86.8691 294.485)" fill="#323330"/>
<path d="M123.708 256.528C113.891 246.711 114.426 230.638 124.874 221.496L328.018 43.7448C337.527 35.4245 351.858 35.9017 360.793 44.8361L448.713 132.756C457.647 141.691 458.124 156.022 449.804 165.531L272.053 368.674C262.911 379.123 246.838 379.658 237.021 369.841L123.708 256.528Z" fill="#323330"/>
<path d="M312.859 211.346C316.284 214.771 318.586 218.473 319.764 222.45C320.943 226.428 321.146 230.534 320.372 234.769C319.562 238.968 317.813 243.258 315.124 247.641C312.472 251.987 309.029 256.277 304.794 260.512C302.879 262.427 300.89 264.269 298.828 266.037C296.802 267.768 294.795 269.406 292.806 270.953C290.854 272.463 288.957 273.844 287.116 275.096C285.275 276.349 283.562 277.435 281.978 278.356L272.477 268.854C276.27 267.123 280.174 264.84 284.188 262.004C288.239 259.131 292.456 255.504 296.839 251.121C300.006 247.954 302.455 245.026 304.186 242.337C305.917 239.575 307.003 237.016 307.445 234.659C307.887 232.228 307.722 230 306.948 227.974C306.212 225.912 304.941 223.978 303.136 222.174C301.185 220.222 298.975 219.117 296.507 218.859C294.04 218.528 291.388 218.712 288.552 219.412C285.68 220.075 282.66 221.106 279.493 222.505C276.325 223.831 273.084 225.194 269.77 226.593C266.455 227.993 263.104 229.282 259.716 230.46C256.327 231.565 252.994 232.246 249.717 232.504C246.402 232.725 243.161 232.357 239.994 231.399C236.864 230.405 233.88 228.49 231.045 225.654C228.577 223.187 226.662 220.24 225.299 216.815C223.937 213.39 223.421 209.671 223.753 205.656C224.047 201.605 225.318 197.315 227.564 192.785C229.848 188.218 233.346 183.578 238.061 178.864C239.276 177.648 240.639 176.396 242.148 175.107C243.695 173.781 245.297 172.511 246.955 171.295C248.612 170.006 250.269 168.791 251.926 167.649C253.621 166.471 255.223 165.421 256.733 164.5L265.571 173.339C261.925 175.365 258.482 177.593 255.241 180.024C251.963 182.418 248.999 184.94 246.347 187.592C240.712 193.227 237.508 198.309 236.735 202.839C235.961 207.369 237.158 211.217 240.325 214.385C242.277 216.337 244.487 217.478 246.955 217.81C249.459 218.104 252.147 217.92 255.02 217.257C257.893 216.594 260.913 215.6 264.08 214.274C267.247 212.875 270.488 211.475 273.803 210.076C277.117 208.676 280.469 207.424 283.857 206.319C287.282 205.178 290.67 204.515 294.021 204.33C297.336 204.11 300.577 204.515 303.744 205.546C306.948 206.54 309.987 208.474 312.859 211.346ZM395.668 167.649L385.835 177.483L352.689 144.337L322.361 174.665L355.507 207.811L345.673 217.644L273.471 145.442L283.304 135.609L313.854 166.158L344.182 135.83L313.633 105.28L323.466 95.4471L395.668 167.649Z" fill="#F0DB4F"/>
<circle cx="315.835" cy="406.435" r="33.8489" fill="#F0DB4F"/>
<path d="M388.273 355.922V440.789C388.273 455.414 381.641 462.727 368.375 462.727C365.516 462.727 362.867 462.305 360.43 461.461V451.055C361.93 451.43 363.898 451.617 366.336 451.617C369.242 451.617 371.445 450.82 372.945 449.227C374.492 447.68 375.266 444.961 375.266 441.07V355.922H388.273ZM373.93 335.742C373.93 333.68 374.562 331.922 375.828 330.469C377.141 328.969 379.039 328.219 381.523 328.219C384.055 328.219 385.977 328.945 387.289 330.398C388.602 331.852 389.258 333.633 389.258 335.742C389.258 337.852 388.602 339.609 387.289 341.016C385.977 342.422 384.055 343.125 381.523 343.125C378.992 343.125 377.094 342.422 375.828 341.016C374.562 339.609 373.93 337.852 373.93 335.742ZM453.594 411.82C453.594 408.305 452.258 405.586 449.586 403.664C446.961 401.695 442.344 400.008 435.734 398.602C429.172 397.195 423.945 395.508 420.055 393.539C416.211 391.57 413.352 389.227 411.477 386.508C409.648 383.789 408.734 380.555 408.734 376.805C408.734 370.57 411.359 365.297 416.609 360.984C421.906 356.672 428.656 354.516 436.859 354.516C445.484 354.516 452.469 356.742 457.812 361.195C463.203 365.648 465.898 371.344 465.898 378.281H452.82C452.82 374.719 451.297 371.648 448.25 369.07C445.25 366.492 441.453 365.203 436.859 365.203C432.125 365.203 428.422 366.234 425.75 368.297C423.078 370.359 421.742 373.055 421.742 376.383C421.742 379.523 422.984 381.891 425.469 383.484C427.953 385.078 432.43 386.602 438.898 388.055C445.414 389.508 450.688 391.242 454.719 393.258C458.75 395.273 461.727 397.711 463.648 400.57C465.617 403.383 466.602 406.828 466.602 410.906C466.602 417.703 463.883 423.164 458.445 427.289C453.008 431.367 445.953 433.406 437.281 433.406C431.188 433.406 425.797 432.328 421.109 430.172C416.422 428.016 412.742 425.016 410.07 421.172C407.445 417.281 406.133 413.086 406.133 408.586H419.141C419.375 412.945 421.109 416.414 424.344 418.992C427.625 421.523 431.938 422.789 437.281 422.789C442.203 422.789 446.141 421.805 449.094 419.836C452.094 417.82 453.594 415.148 453.594 411.82Z" fill="#212121"/>
</g>
<defs>
<clipPath id="clip0">
<rect width="512" height="512" fill="white"/>
</clipPath>
</defs>
</svg>
